<svg width="1440" height="980" viewBox="0 0 1440 980" fill="none" xmlns="http://www.w3.org/2000/svg">
  <rect width="1440" height="980" fill="#F6F8FB"/>

  <rect x="0" y="0" width="260" height="980" fill="#102033"/>
  <text x="32" y="56" fill="#EAF2FF" font-family="Inter, Arial, sans-serif" font-size="24" font-weight="800">DropoutGuard</text>
  <text x="32" y="82" fill="#8EA4BF" font-family="Inter, Arial, sans-serif" font-size="13">Teacher workspace</text>

  <rect x="24" y="126" width="212" height="48" rx="8" fill="#1E3A5F"/>
  <rect x="24" y="126" width="4" height="48" rx="2" fill="#4F9CF9"/>
  <text x="52" y="156" fill="#FFFFFF" font-family="Inter, Arial, sans-serif" font-size="15" font-weight="700">Dashboard</text>
  <text x="52" y="216" fill="#A9BCD1" font-family="Inter, Arial, sans-serif" font-size="15">Daily forms</text>
  <text x="52" y="272" fill="#A9BCD1" font-family="Inter, Arial, sans-serif" font-size="15">My class</text>
  <text x="52" y="328" fill="#A9BCD1" font-family="Inter, Arial, sans-serif" font-size="15">Reports</text>

  <rect x="28" y="852" width="204" height="74" rx="10" fill="#172B43"/>
  <circle cx="60" cy="889" r="18" fill="#4F9CF9"/>
  <text x="88" y="884" fill="#FFFFFF" font-family="Inter, Arial, sans-serif" font-size="14" font-weight="700">Teacher Name</text>
  <text x="88" y="906" fill="#90A9C4" font-family="Inter, Arial, sans-serif" font-size="12">S3 A assigned</text>

  <rect x="260" y="0" width="1180" height="88" fill="#FFFFFF"/>
  <line x1="260" y1="88" x2="1440" y2="88" stroke="#E5EAF1"/>
  <text x="308" y="42" fill="#122033" font-family="Inter, Arial, sans-serif" font-size="26" font-weight="800">My Class Dashboard</text>
  <text x="308" y="66" fill="#6B7A90" font-family="Inter, Arial, sans-serif" font-size="14">Monday, 11 May 2026 - S3 A</text>

  <rect x="1046" y="24" width="134" height="40" rx="8" fill="#EEF6FF"/>
  <text x="1072" y="49" fill="#2563EB" font-family="Inter, Arial, sans-serif" font-size="14" font-weight="700">Today only</text>
  <rect x="1194" y="24" width="166" height="40" rx="8" fill="#2563EB"/>
  <text x="1226" y="49" fill="#FFFFFF" font-family="Inter, Arial, sans-serif" font-size="14" font-weight="800">Start Forms</text>

  <rect x="308" y="124" width="252" height="142" rx="10" fill="#FFFFFF" stroke="#E5EAF1"/>
  <text x="332" y="156" fill="#6B7A90" font-family="Inter, Arial, sans-serif" font-size="13" font-weight="700">STUDENTS</text>
  <text x="332" y="210" fill="#122033" font-family="Inter, Arial, sans-serif" font-size="46" font-weight="800">42</text>
  <text x="332" y="238" fill="#6B7A90" font-family="Inter, Arial, sans-serif" font-size="14">assigned to this class</text>
  <circle cx="520" cy="174" r="22" fill="#EEF6FF"/>
  <path d="M511 174h18M520 165v18" stroke="#2563EB" stroke-width="3" stroke-linecap="round"/>

  <rect x="584" y="124" width="252" height="142" rx="10" fill="#FFFFFF" stroke="#E5EAF1"/>
  <text x="608" y="156" fill="#6B7A90" font-family="Inter, Arial, sans-serif" font-size="13" font-weight="700">RECORDED TODAY</text>
  <text x="608" y="210" fill="#122033" font-family="Inter, Arial, sans-serif" font-size="46" font-weight="800">31</text>
  <text x="608" y="238" fill="#6B7A90" font-family="Inter, Arial, sans-serif" font-size="14">11 still need forms</text>
  <rect x="768" y="158" width="38" height="38" rx="19" fill="#E9FBEF"/>
  <path d="M777 177l8 8 14-18" stroke="#16A34A" stroke-width="3" stroke-linecap="round" stroke-linejoin="round"/>

  <rect x="860" y="124" width="252" height="142" rx="10" fill="#FFFFFF" stroke="#E5EAF1"/>
  <text x="884" y="156" fill="#6B7A90" font-family="Inter, Arial, sans-serif" font-size="13" font-weight="700">AT RISK</text>
  <text x="884" y="210" fill="#B42318" font-family="Inter, Arial, sans-serif" font-size="46" font-weight="800">8</text>
  <text x="884" y="238" fill="#6B7A90" font-family="Inter, Arial, sans-serif" font-size="14">need follow-up</text>
  <rect x="1044" y="158" width="38" height="38" rx="19" fill="#FEEDEC"/>
  <path d="M1063 166v14M1063 187h.1" stroke="#DC2626" stroke-width="4" stroke-linecap="round"/>

  <rect x="1136" y="124" width="224" height="142" rx="10" fill="#FFFFFF" stroke="#E5EAF1"/>
  <text x="1160" y="156" fill="#6B7A90" font-family="Inter, Arial, sans-serif" font-size="13" font-weight="700">SAFE</text>
  <text x="1160" y="210" fill="#15803D" font-family="Inter, Arial, sans-serif" font-size="46" font-weight="800">23</text>
  <text x="1160" y="238" fill="#6B7A90" font-family="Inter, Arial, sans-serif" font-size="14">low risk today</text>

  <rect x="308" y="298" width="662" height="214" rx="10" fill="#FFFFFF" stroke="#E5EAF1"/>
  <text x="332" y="334" fill="#122033" font-family="Inter, Arial, sans-serif" font-size="18" font-weight="800">Today’s progress</text>
  <text x="332" y="358" fill="#6B7A90" font-family="Inter, Arial, sans-serif" font-size="13">Quick view of completed forms and remaining work</text>
  <rect x="332" y="396" width="590" height="18" rx="9" fill="#E8EEF6"/>
  <rect x="332" y="396" width="436" height="18" rx="9" fill="#2563EB"/>
  <text x="332" y="446" fill="#122033" font-family="Inter, Arial, sans-serif" font-size="32" font-weight="800">74%</text>
  <text x="405" y="444" fill="#6B7A90" font-family="Inter, Arial, sans-serif" font-size="14">of students recorded</text>
  <rect x="332" y="470" width="122" height="22" rx="11" fill="#EEF6FF"/>
  <text x="350" y="485" fill="#2563EB" font-family="Inter, Arial, sans-serif" font-size="12" font-weight="800">31 done</text>
  <rect x="466" y="470" width="132" height="22" rx="11" fill="#FFF7E6"/>
  <text x="484" y="485" fill="#B45309" font-family="Inter, Arial, sans-serif" font-size="12" font-weight="800">11 pending</text>

  <rect x="994" y="298" width="366" height="214" rx="10" fill="#FFFFFF" stroke="#E5EAF1"/>
  <text x="1018" y="334" fill="#122033" font-family="Inter, Arial, sans-serif" font-size="18" font-weight="800">Risk distribution</text>
  <circle cx="1114" cy="418" r="58" fill="none" stroke="#16A34A" stroke-width="26"/>
  <path d="M1114 360a58 58 0 0 1 53 82" stroke="#DC2626" stroke-width="26" stroke-linecap="round"/>
  <rect x="1214" y="384" width="12" height="12" rx="3" fill="#DC2626"/>
  <text x="1236" y="395" fill="#122033" font-family="Inter, Arial, sans-serif" font-size="14">At Risk 8</text>
  <rect x="1214" y="424" width="12" height="12" rx="3" fill="#16A34A"/>
  <text x="1236" y="435" fill="#122033" font-family="Inter, Arial, sans-serif" font-size="14">Safe 23</text>

  <rect x="308" y="544" width="1052" height="356" rx="10" fill="#FFFFFF" stroke="#E5EAF1"/>
  <text x="332" y="580" fill="#122033" font-family="Inter, Arial, sans-serif" font-size="20" font-weight="800">Students</text>
  <rect x="1058" y="554" width="138" height="38" rx="8" fill="#F3F6FA" stroke="#DDE5EF"/>
  <text x="1084" y="578" fill="#41516A" font-family="Inter, Arial, sans-serif" font-size="13" font-weight="700">Filter: All</text>
  <rect x="1210" y="554" width="126" height="38" rx="8" fill="#F3F6FA" stroke="#DDE5EF"/>
  <text x="1238" y="578" fill="#41516A" font-family="Inter, Arial, sans-serif" font-size="13" font-weight="700">Search</text>

  <rect x="332" y="616" width="980" height="42" rx="8" fill="#F8FAFD"/>
  <text x="356" y="642" fill="#6B7A90" font-family="Inter, Arial, sans-serif" font-size="12" font-weight="800">STUDENT</text>
  <text x="560" y="642" fill="#6B7A90" font-family="Inter, Arial, sans-serif" font-size="12" font-weight="800">STATUS</text>
  <text x="720" y="642" fill="#6B7A90" font-family="Inter, Arial, sans-serif" font-size="12" font-weight="800">RISK</text>
  <text x="852" y="642" fill="#6B7A90" font-family="Inter, Arial, sans-serif" font-size="12" font-weight="800">LAST FORM</text>
  <text x="1132" y="642" fill="#6B7A90" font-family="Inter, Arial, sans-serif" font-size="12" font-weight="800">ACTION</text>

  <g font-family="Inter, Arial, sans-serif">
    <text x="356" y="700" fill="#122033" font-size="15" font-weight="800">STU-001  Uwase Diane</text>
    <text x="356" y="722" fill="#6B7A90" font-size="13">Guardian: Mukamana</text>
    <rect x="560" y="684" width="86" height="28" rx="14" fill="#FEEDEC"/>
    <text x="580" y="703" fill="#B42318" font-size="12" font-weight="800">At Risk</text>
    <text x="720" y="703" fill="#B42318" font-size="16" font-weight="800">82%</text>
    <text x="852" y="703" fill="#122033" font-size="14">Today</text>
    <rect x="1120" y="676" width="150" height="40" rx="8" fill="#2563EB"/>
    <text x="1154" y="701" fill="#FFFFFF" font-size="13" font-weight="800">Update Form</text>

    <line x1="332" y1="746" x2="1312" y2="746" stroke="#EDF1F6"/>
    <text x="356" y="788" fill="#122033" font-size="15" font-weight="800">STU-002  Niyonsenga Eric</text>
    <text x="356" y="810" fill="#6B7A90" font-size="13">Guardian: Habimana</text>
    <rect x="560" y="772" width="72" height="28" rx="14" fill="#E9FBEF"/>
    <text x="582" y="791" fill="#15803D" font-size="12" font-weight="800">Safe</text>
    <text x="720" y="791" fill="#15803D" font-size="16" font-weight="800">18%</text>
    <text x="852" y="791" fill="#122033" font-size="14">Today</text>
    <rect x="1120" y="764" width="150" height="40" rx="8" fill="#EEF6FF"/>
    <text x="1154" y="789" fill="#2563EB" font-size="13" font-weight="800">View Form</text>

    <line x1="332" y1="834" x2="1312" y2="834" stroke="#EDF1F6"/>
    <text x="356" y="876" fill="#122033" font-size="15" font-weight="800">STU-003  Ishimwe Aline</text>
    <text x="356" y="898" fill="#6B7A90" font-size="13">Guardian: Uwimana</text>
    <rect x="560" y="860" width="112" height="28" rx="14" fill="#FFF7E6"/>
    <text x="580" y="879" fill="#B45309" font-size="12" font-weight="800">Pending</text>
    <text x="720" y="879" fill="#94A3B8" font-size="16" font-weight="800">--</text>
    <text x="852" y="879" fill="#64748B" font-size="14">Yesterday</text>
    <rect x="1120" y="852" width="150" height="40" rx="8" fill="#2563EB"/>
    <text x="1162" y="877" fill="#FFFFFF" font-size="13" font-weight="800">Fill Form</text>
  </g>
</svg>
